<svg xmlns="http://www.w3.org/2000/svg" xmlns:xlink="http://www.w3.org/1999/xlink" width="2000" zoomAndPan="magnify" viewBox="0 0 1500 1499.999933" height="2000" preserveAspectRatio="xMidYMid meet" version="1.0"><defs><g/></defs><g fill="#e90000" fill-opacity="1"><g transform="translate(406.402791, 749.170168)"><g><path d="M 18.621094 0 L 18.621094 -103.042969 L 170.085938 -206.707031 C 178.773438 -212.5 186.429688 -218.605469 193.050781 -225.019531 C 199.671875 -231.433594 205.257812 -238.160156 209.8125 -245.195312 C 214.363281 -252.230469 217.882812 -259.367188 220.363281 -266.609375 C 222.847656 -273.851562 224.089844 -281.40625 224.089844 -289.265625 C 224.089844 -298.785156 221.8125 -307.0625 217.261719 -314.097656 C 212.707031 -321.132812 206.398438 -326.511719 198.328125 -330.234375 C 190.257812 -333.960938 180.636719 -335.824219 169.464844 -335.824219 C 156.222656 -335.824219 145.359375 -333.339844 136.875 -328.375 C 128.390625 -323.40625 121.976562 -316.890625 117.632812 -308.820312 C 113.285156 -300.75 110.597656 -292.058594 109.5625 -282.75 C 108.527344 -273.4375 108.628906 -264.230469 109.871094 -255.125 L 15.519531 -264.4375 C 11.792969 -296.714844 15.726562 -324.339844 27.3125 -347.308594 C 38.898438 -370.273438 57.109375 -387.863281 81.9375 -400.070312 C 106.769531 -412.277344 136.976562 -418.382812 172.566406 -418.382812 C 204.433594 -418.382812 231.640625 -413.519531 254.195312 -403.792969 C 276.75 -394.070312 294.027344 -379.894531 306.027344 -361.273438 C 318.027344 -342.652344 324.027344 -320.304688 324.027344 -294.234375 C 324.027344 -275.195312 321.234375 -258.023438 315.648438 -242.710938 C 310.0625 -227.398438 302.199219 -213.535156 292.058594 -201.121094 C 281.921875 -188.707031 270.128906 -177.121094 256.679688 -166.359375 C 243.230469 -155.601562 228.640625 -145.253906 212.914062 -135.324219 L 134.082031 -85.042969 L 134.082031 -82.558594 L 328.996094 -83.800781 L 328.996094 0 Z M 18.621094 0 "/></g></g></g><g fill="#e90000" fill-opacity="1"><g transform="translate(724.844296, 749.170168)"><g><path d="M 182.5 8.691406 C 155.601562 8.691406 131.804688 3.828125 111.113281 -5.898438 C 90.421875 -15.621094 73.039062 -29.589844 58.972656 -47.796875 C 44.902344 -66.007812 34.347656 -88.042969 27.3125 -113.90625 C 20.277344 -139.769531 16.761719 -168.84375 16.761719 -201.121094 C 16.761719 -247.46875 23.277344 -286.785156 36.3125 -319.0625 C 49.347656 -351.339844 68.488281 -375.964844 93.734375 -392.929688 C 118.976562 -409.898438 149.804688 -418.382812 186.222656 -418.382812 C 222.226562 -418.382812 252.539062 -410.003906 277.164062 -393.242188 C 301.785156 -376.480469 320.40625 -352.066406 333.03125 -319.992188 C 345.652344 -287.921875 351.960938 -249.125 351.960938 -203.605469 C 351.960938 -170.910156 348.339844 -141.53125 341.097656 -115.457031 C 333.855469 -89.386719 323.097656 -67.144531 308.820312 -48.726562 C 294.542969 -30.3125 276.851562 -16.140625 255.746094 -6.207031 C 234.640625 3.722656 210.226562 8.691406 182.5 8.691406 Z M 185.601562 -71.386719 C 196.777344 -71.386719 206.292969 -73.972656 214.15625 -79.144531 C 222.019531 -84.316406 228.433594 -92.179688 233.398438 -102.734375 C 238.367188 -113.285156 241.988281 -126.632812 244.261719 -142.769531 C 246.539062 -158.910156 247.675781 -177.738281 247.675781 -199.257812 C 247.675781 -229.882812 245.503906 -255.4375 241.160156 -275.921875 C 236.8125 -296.40625 229.984375 -311.820312 220.675781 -322.167969 C 211.363281 -332.511719 199.050781 -337.683594 183.742188 -337.683594 C 169.257812 -337.683594 157.359375 -332.71875 148.046875 -322.789062 C 138.738281 -312.855469 131.910156 -297.957031 127.5625 -278.09375 C 123.21875 -258.230469 121.046875 -233.191406 121.046875 -202.984375 C 121.046875 -181.050781 122.285156 -161.910156 124.769531 -145.566406 C 127.253906 -129.21875 131.183594 -115.5625 136.5625 -104.59375 C 141.945312 -93.628906 148.667969 -85.351562 156.738281 -79.765625 C 164.808594 -74.179688 174.429688 -71.386719 185.601562 -71.386719 Z M 185.601562 -71.386719 "/></g></g></g><g fill="#e90000" fill-opacity="1"><g transform="translate(384.687953, 1208.170129)"><g><path d="M 9.3125 -73.867188 L 9.3125 -167.601562 C 29.175781 -189.949219 46.039062 -211.261719 59.902344 -231.539062 C 73.765625 -251.816406 85.664062 -271.574219 95.59375 -290.820312 C 105.527344 -310.0625 114.320312 -329.511719 121.976562 -349.167969 C 129.632812 -368.824219 137.390625 -389.207031 145.253906 -410.3125 L 309.132812 -410.3125 L 309.132812 0 L 209.191406 0 L 209.191406 -335.203125 L 206.707031 -335.203125 C 199.671875 -313.269531 191.1875 -292.058594 181.257812 -271.574219 C 171.324219 -251.089844 160.566406 -231.640625 148.980469 -213.226562 C 137.390625 -194.808594 124.769531 -177.121094 111.113281 -160.152344 L 111.113281 -157.667969 L 362.515625 -157.667969 L 362.515625 -73.867188 Z M 9.3125 -73.867188 "/></g></g></g><g fill="#e90000" fill-opacity="1"><g transform="translate(737.891025, 1208.170129)"><g><path d="M 188.707031 8.691406 C 153.945312 8.691406 123.425781 4.550781 97.148438 -3.722656 C 70.867188 -12 50.382812 -24.726562 35.691406 -41.898438 C 21 -59.074219 13.65625 -80.902344 13.65625 -107.390625 C 13.65625 -126.011719 17.484375 -142.359375 25.140625 -156.425781 C 32.796875 -170.496094 44.695312 -181.980469 60.832031 -190.878906 C 76.972656 -199.777344 97.664062 -205.257812 122.90625 -207.328125 L 122.90625 -211.675781 L 188.707031 -227.191406 L 254.503906 -211.675781 L 254.503906 -207.328125 C 278.921875 -205.257812 299.199219 -199.984375 315.339844 -191.5 C 331.476562 -183.015625 343.582031 -171.738281 351.652344 -157.667969 C 359.722656 -143.597656 363.757812 -126.839844 363.757812 -107.390625 C 363.757812 -80.902344 356.410156 -59.074219 341.71875 -41.898438 C 327.027344 -24.726562 306.648438 -12 280.578125 -3.722656 C 254.503906 4.550781 223.882812 8.691406 188.707031 8.691406 Z M 189.949219 -73.246094 C 198.222656 -73.246094 206.5 -74.074219 214.777344 -75.730469 C 223.054688 -77.386719 230.8125 -80.074219 238.054688 -83.800781 C 245.296875 -87.523438 251.089844 -92.59375 255.4375 -99.007812 C 259.78125 -105.421875 261.953125 -113.597656 261.953125 -123.527344 C 261.953125 -135.117188 258.746094 -144.324219 252.332031 -151.152344 C 245.917969 -157.980469 237.226562 -162.945312 226.261719 -166.050781 C 215.296875 -169.152344 202.777344 -170.703125 188.707031 -170.703125 C 174.636719 -170.703125 162.117188 -169.152344 151.152344 -166.050781 C 140.183594 -162.945312 131.703125 -157.980469 125.699219 -151.152344 C 119.699219 -144.324219 116.699219 -135.117188 116.699219 -123.527344 C 116.699219 -114.011719 118.871094 -106.042969 123.21875 -99.628906 C 127.5625 -93.214844 133.355469 -88.042969 140.597656 -84.109375 C 147.839844 -80.179688 155.703125 -77.386719 164.1875 -75.730469 C 172.671875 -74.074219 181.257812 -73.246094 189.949219 -73.246094 Z M 188.707031 -242.710938 C 199.878906 -242.710938 209.8125 -244.160156 218.503906 -247.054688 C 227.191406 -249.953125 234.019531 -254.816406 238.988281 -261.644531 C 243.953125 -268.472656 246.4375 -277.472656 246.4375 -288.644531 C 246.4375 -297.75 244.675781 -305.40625 241.160156 -311.613281 C 237.640625 -317.820312 232.984375 -322.683594 227.191406 -326.203125 C 221.398438 -329.71875 215.089844 -332.304688 208.261719 -333.960938 C 201.433594 -335.617188 194.914062 -336.445312 188.707031 -336.445312 C 180.015625 -336.445312 171.324219 -334.996094 162.636719 -332.097656 C 153.945312 -329.203125 146.703125 -324.339844 140.910156 -317.511719 C 135.117188 -310.683594 132.21875 -301.269531 132.21875 -289.265625 C 132.21875 -277.679688 134.703125 -268.472656 139.667969 -261.644531 C 144.632812 -254.816406 151.460938 -249.953125 160.152344 -247.054688 C 168.84375 -244.160156 178.359375 -242.710938 188.707031 -242.710938 Z M 188.707031 -183.742188 L 122.90625 -206.085938 L 122.90625 -211.675781 C 101.386719 -214.570312 83.59375 -219.640625 69.523438 -226.882812 C 55.453125 -234.125 45.109375 -244.054688 38.484375 -256.679688 C 31.863281 -269.300781 28.554688 -284.714844 28.554688 -302.921875 C 28.554688 -329.410156 35.382812 -351.132812 49.039062 -368.101562 C 62.695312 -385.070312 81.523438 -397.691406 105.527344 -405.96875 C 129.527344 -414.242188 157.253906 -418.382812 188.707031 -418.382812 C 221.398438 -418.382812 249.746094 -414.140625 273.75 -405.65625 C 297.75 -397.171875 316.371094 -384.34375 329.617188 -367.171875 C 342.859375 -349.996094 349.480469 -328.582031 349.480469 -302.921875 C 349.480469 -277.265625 342.238281 -256.78125 327.753906 -241.46875 C 313.269531 -226.15625 288.851562 -216.226562 254.503906 -211.675781 L 254.503906 -206.085938 Z M 188.707031 -183.742188 "/></g></g></g></svg>